<svg width="444" height="444" viewBox="0 0 444 444" fill="none" xmlns="http://www.w3.org/2000/svg">
<path d="M211.649 292.85C205.729 292.85 199.809 290.63 195.369 286.19L183.345 274.165C177.98 268.8 177.98 259.92 183.345 254.555C188.709 249.19 197.589 249.19 202.954 254.555L211.834 263.435L241.619 236.055C247.169 230.875 256.049 231.245 261.229 236.795C266.409 242.345 266.039 251.225 260.489 256.405L227.559 286.745C222.934 290.815 217.384 292.85 211.649 292.85Z" fill="white"/>
<path d="M296.009 420.876H148.01C62.5396 420.876 46.6296 381.101 42.5596 342.436L28.6846 194.251C26.6496 174.826 26.0946 146.151 45.3346 124.691C61.9846 106.191 89.5496 97.3108 129.51 97.3108H314.509C354.654 97.3108 382.219 106.376 398.684 124.691C417.924 146.151 417.369 174.826 415.334 194.436L401.459 342.251C397.389 381.101 381.479 420.876 296.009 420.876ZM129.51 124.876C98.2446 124.876 76.7846 130.981 65.8696 143.191C56.8046 153.181 53.8446 168.536 56.2496 191.476L70.1246 339.661C73.2696 368.891 81.2246 393.126 148.01 393.126H296.009C362.609 393.126 370.749 368.891 373.894 339.476L387.769 191.661C390.174 168.536 387.214 153.181 378.149 143.191C367.234 130.981 345.774 124.876 314.509 124.876H129.51Z" fill="white"/>
<path d="M296.009 124.87C288.424 124.87 282.134 118.58 282.134 110.995V96.1949C282.134 63.2649 282.134 50.8699 236.809 50.8699H207.209C161.885 50.8699 161.885 63.2649 161.885 96.1949V110.995C161.885 118.58 155.595 124.87 148.01 124.87C140.425 124.87 134.135 118.58 134.135 110.995V96.1949C134.135 63.6349 134.135 23.1199 207.209 23.1199H236.809C309.884 23.1199 309.884 63.6349 309.884 96.1949V110.995C309.884 118.58 303.594 124.87 296.009 124.87Z" fill="white"/>
<path d="M296.194 266.21C289.904 266.21 284.354 261.955 282.689 255.665C280.839 248.265 285.279 240.68 292.679 238.83C328.754 229.765 362.239 214.04 392.209 192.21C398.314 187.77 407.009 189.065 411.634 195.355C416.074 201.46 414.779 210.155 408.489 214.78C375.559 238.645 338.929 255.85 299.339 265.84C298.414 266.025 297.304 266.21 296.194 266.21Z" fill="white"/>
<path d="M148.013 266.77C146.903 266.77 145.793 266.585 144.683 266.4C107.498 257.335 72.5334 241.61 40.5284 219.78C34.2384 215.525 32.5734 206.83 36.8284 200.54C41.0834 194.25 49.7784 192.585 56.0684 196.84C85.2984 216.82 117.118 231.065 151.158 239.39C158.558 241.24 163.183 248.64 161.333 256.225C160.038 262.515 154.303 266.77 148.013 266.77Z" fill="white"/>
</svg>
